<?xml version="1.0" encoding="utf-8"?>
<!-- Generator: Adobe Illustrator 16.0.0, SVG Export Plug-In . SVG Version: 6.00 Build 0)  -->
<!DOCTYPE svg PUBLIC "-//W3C//DTD SVG 1.1//EN" "http://www.w3.org/Graphics/SVG/1.1/DTD/svg11.dtd">
<svg version="1.1" id="Layer_1" xmlns="http://www.w3.org/2000/svg" xmlns:xlink="http://www.w3.org/1999/xlink" x="0px" y="0px"
	 width="512px" height="512px" viewBox="0 0 512 512" enable-background="new 0 0 512 512" xml:space="preserve">
<path fill="#020201" d="M422.936,31H89.065C56.996,31,31,56.996,31,89.064v333.871C31,455.003,56.996,481,89.065,481h333.871
	C455.003,481,481,455.003,481,422.935V89.064C481,56.996,455.003,31,422.936,31z M130.219,360.969
	c-7.216,0.07-13.451-6.515-13.155-13.692c-0.04-36.435,0.023-72.862-0.023-109.289c-19.554-0.078-39.101,0.032-58.654-0.054
	c25.968-28.813,52.208-57.392,78.41-85.995c1.356-2.392,2.923,0.382,4.139,1.474c25.563,28.228,51.522,56.105,76.914,84.482
	c-19.531,0.195-39.062-0.048-58.592,0.117c-0.077,26.871-0.039,53.743-0.015,80.615c21.112,0.188,100.677-0.024,121.796,0.108
	c13.592,14.177,27.613,27.948,41.064,42.258C277.625,360.994,174.696,361.032,130.219,360.969z M375.219,360.079
	c-1.199,2.214-2.648,0.039-3.756-1.06c-25.641-28.415-51.748-56.409-77.303-84.895c19.49-0.171,38.975,0,58.465-0.086
	c0.195-26.911,0.172-53.83,0.008-80.733c-21.057-0.085-98.237,0.008-119.294-0.047c-13.584-14.207-27.621-27.986-41.135-42.264
	c44.245-0.046,144.601-0.031,188.837-0.007c7.164-0.304,13.826,5.759,13.85,12.984c0.125,36.684-0.008,73.376,0.063,110.06
	c19.553,0.07,39.107-0.016,58.66,0.047C427.6,302.851,401.36,331.424,375.219,360.079z"/>
</svg>
